<svg xmlns="http://www.w3.org/2000/svg" version="1.1" xmlns:xlink="http://www.w3.org/1999/xlink" width="1000" height="1000"><style>
    #light-icon {
      display: inline;
    }
    #dark-icon {
      display: none;
    }

    @media (prefers-color-scheme: dark) {
      #light-icon {
        display: none;
      }
      #dark-icon {
        display: inline;
      }
    }
  </style><g id="light-icon"><svg xmlns="http://www.w3.org/2000/svg" version="1.1" xmlns:xlink="http://www.w3.org/1999/xlink" width="1000" height="1000"><g clip-path="url(#SvgjsClipPath1189)"><rect width="1000" height="1000" fill="#ffffff"></rect><g transform="matrix(6.172839506172839,0,0,6.172839506172839,0,0)"><svg xmlns="http://www.w3.org/2000/svg" version="1.1" xmlns:xlink="http://www.w3.org/1999/xlink" width="162" height="162"><svg width="162" height="162" viewBox="0 0 162 162" fill="none" xmlns="http://www.w3.org/2000/svg">
<rect width="162" height="162" fill="white"></rect>
<path d="M85.28 99.912V129H76.544V60.264H104.96C112.192 60.264 117.632 62.248 121.28 66.216C124.48 69.672 126.08 74.408 126.08 80.424C126.08 86.504 124.128 91.336 120.224 94.92C116.64 98.248 112.192 99.912 106.88 99.912H85.28ZM85.28 92.136H103.616C107.776 92.136 111.04 91.08 113.408 88.968C115.776 86.856 116.96 83.88 116.96 80.04C116.96 76.264 115.776 73.32 113.408 71.208C111.04 69.096 107.776 68.04 103.616 68.04H85.28V92.136Z" fill="black"></path>
<path d="M44.32 31.264V92.224H78.208V100H35.584V31.264H44.32Z" fill="black"></path>
</svg></svg></g></g><defs><clipPath id="SvgjsClipPath1189"><rect width="1000" height="1000" x="0" y="0" rx="150" ry="150"></rect></clipPath></defs></svg></g><g id="dark-icon"><svg xmlns="http://www.w3.org/2000/svg" version="1.1" xmlns:xlink="http://www.w3.org/1999/xlink" width="1000" height="1000"><g><g transform="matrix(6.172839506172839,0,0,6.172839506172839,0,0)" style="filter: invert(100%)"><svg xmlns="http://www.w3.org/2000/svg" version="1.1" xmlns:xlink="http://www.w3.org/1999/xlink" width="162" height="162"><svg width="162" height="162" viewBox="0 0 162 162" fill="none" xmlns="http://www.w3.org/2000/svg">
<rect width="162" height="162" fill="white"></rect>
<path d="M85.28 99.912V129H76.544V60.264H104.96C112.192 60.264 117.632 62.248 121.28 66.216C124.48 69.672 126.08 74.408 126.08 80.424C126.08 86.504 124.128 91.336 120.224 94.92C116.64 98.248 112.192 99.912 106.88 99.912H85.28ZM85.28 92.136H103.616C107.776 92.136 111.04 91.08 113.408 88.968C115.776 86.856 116.96 83.88 116.96 80.04C116.96 76.264 115.776 73.32 113.408 71.208C111.04 69.096 107.776 68.04 103.616 68.04H85.28V92.136Z" fill="black"></path>
<path d="M44.32 31.264V92.224H78.208V100H35.584V31.264H44.32Z" fill="black"></path>
</svg></svg></g></g></svg></g></svg>